<svg xmlns="http://www.w3.org/2000/svg" style="display:none">
  <symbol id="icon-btn-arrow" viewBox="0 0 40 40" fill="none">
    <circle cx="20" cy="20" r="20" fill="#FD8011" />
    <path d="M16 15L24 20L16 25" stroke="#fff" stroke-width="1.5" stroke-linecap="round"
      stroke-linejoin="round" />
  </symbol>
  <symbol id="icon-btn-arrow-light" viewBox="0 0 34 35" fill="none">
    <circle cx="17" cy="17.5" r="17" fill="#fff" />
    <path d="M13.5 12.5L20.5 17.5L13.5 22.5" stroke="#FD8011" stroke-width="1.5"
      stroke-linecap="round" stroke-linejoin="round" />
  </symbol>
  <symbol id="icon-arrow-right" viewBox="0 0 15 10" fill="none">
    <path
      d="M14.4394 5.01611C14.6821 4.77341 14.6821 4.37991 14.4394 4.13721L10.4844 0.182203C10.2417 -0.0604959 9.84824 -0.0604959 9.60554 0.182203C9.36284 0.424902 9.36284 0.818396 9.60554 1.06109L13.1211 4.57666L9.60554 8.09223C9.36284 8.33492 9.36284 8.72842 9.60554 8.97112C9.84824 9.21382 10.2417 9.21382 10.4844 8.97112L14.4394 5.01611ZM0 4.57666L0 5.19813L14 5.19813V4.57666V3.95519L0 3.95519L0 4.57666Z"
      fill="currentColor" />
  </symbol>
  <symbol id="icon-chevron-left" viewBox="0 0 7 11" fill="none">
    <path
      d="M5.59961 0.109429C5.76294 -0.0364762 6.02808 -0.0364762 6.19141 0.109429C6.35468 0.255325 6.35468 0.491854 6.19141 0.637749L1.01465 5.26079L6.19141 9.88482C6.35436 10.0307 6.35436 10.2664 6.19141 10.4122C6.02808 10.5581 5.76294 10.5581 5.59961 10.4122L0.188477 5.57915C0.165101 5.56541 0.142635 5.54869 0.12207 5.53032C0.0407101 5.45742 -6.20337e-06 5.36207 7.08894e-10 5.26665V5.25493C0.000132491 5.15958 0.0406873 5.06407 0.12207 4.99126C0.142698 4.97283 0.165023 4.9562 0.188477 4.94243L5.59961 0.109429Z"
      fill="currentColor" />
  </symbol>
  <symbol id="icon-chevron-right" viewBox="0 0 7 11" fill="none">
    <path
      d="M0.714233 10.4121C0.550903 10.558 0.285763 10.558 0.122433 10.4121C-0.0408373 10.2662 -0.0408373 10.0296 0.122433 9.88374L5.29919 5.26069L0.122433 0.636661C-0.0405173 0.490831 -0.0405173 0.255131 0.122433 0.109331C0.285763 -0.0365689 0.550903 -0.0365689 0.714233 0.109331L6.12537 4.94233C6.14874 4.95607 6.17121 4.97279 6.19177 4.99116C6.27313 5.06406 6.31385 5.15941 6.31384 5.25483V5.26655C6.31371 5.3619 6.27316 5.45741 6.19177 5.53022C6.17114 5.54865 6.14882 5.56528 6.12537 5.57905L0.714233 10.4121Z"
      fill="currentColor" />
  </symbol>
  <symbol id="icon-compare" viewBox="0 0 13 20" fill="none">
    <line x1="1" y1="-1" x2="13.7499" y2="-1"
      transform="matrix(0.74577 0.666203 -0.74577 0.666203 0 0.942383)" stroke="currentColor"
      stroke-width="2" stroke-linecap="round" />
    <line x1="1" y1="-1" x2="13.7499" y2="-1"
      transform="matrix(0.74577 -0.666203 -0.74577 -0.666203 0 18.6592)" stroke="currentColor"
      stroke-width="2" stroke-linecap="round" />
  </symbol>
  <symbol id="icon-arrow-up-right" viewBox="0 0 24 24" fill="none">
    <path d="M7 17L17 7M17 7H9M17 7V15" stroke="currentColor" stroke-width="2"
      stroke-linecap="round" stroke-linejoin="round" />
  </symbol>
  <symbol id="icon-panels-chevron" viewBox="0 0 32 32" fill="none">
    <path d="M8 12L16 20L24 12" stroke="currentColor" stroke-width="2" stroke-linecap="round"
      stroke-linejoin="round" />
  </symbol>
  <symbol id="icon-check-circle" viewBox="0 0 28 28" fill="none">
    <circle cx="14" cy="14" r="13" stroke="currentColor" stroke-width="2" />
    <path d="M8.5 14.2L12.3 18L19.5 10.8" stroke="currentColor" stroke-width="2"
      stroke-linecap="round" stroke-linejoin="round" />
  </symbol>
  <symbol id="icon-close-circle" viewBox="0 0 28 28" fill="none">
    <circle cx="14" cy="14" r="13" stroke="currentColor" stroke-width="2" />
    <path d="M10 10L18 18M18 10L10 18" stroke="currentColor" stroke-width="2" stroke-linecap="round" />
  </symbol>
  <symbol id="icon-telegram" viewBox="0 0 16 14" fill="none">
    <path
      d="M14.7011 0.153063L0.525852 5.64762C-0.0445851 5.9035 -0.237523 6.41591 0.387977 6.694L4.02454 7.85566L12.8173 2.39347C13.2974 2.05056 13.7889 2.142 13.3659 2.51922L5.81416 9.39219L5.57695 12.3008C5.79667 12.7499 6.19898 12.752 6.4556 12.5288L8.54492 10.5416L12.1232 13.235C12.9543 13.7295 13.4065 13.4104 13.5853 12.5039L15.9324 1.33297C16.176 0.217188 15.7605 -0.274437 14.7011 0.153063Z"
      fill="currentColor" />
  </symbol>
  <symbol id="icon-whatsapp" viewBox="0 0 20 20" fill="none">
    <path
      d="M16.497 2.39108C18.3113 3.93947 19.5124 6.08539 19.8836 8.44157C20.2547 10.7978 19.7715 13.209 18.521 15.2402C17.2705 17.2714 15.3352 18.7887 13.0643 19.5183C10.7934 20.2479 8.33649 20.1418 6.13696 19.2191L5.91396 19.1211L1.15495 19.9701L1.04496 19.9811C1.00832 19.9831 0.971594 19.9831 0.934955 19.9811L0.832955 19.9681L0.724955 19.9441L0.619955 19.9071L0.520955 19.8601L0.427955 19.8021L0.413955 19.7911L0.401955 19.7841L0.315955 19.7111L0.238955 19.6311L0.171955 19.5431L0.115955 19.4491L0.081955 19.3791L0.041955 19.2711L0.0139549 19.1431L0.00195504 19.0411C-0.000651679 18.9995 -0.000651679 18.9577 0.00195504 18.9161L0.0139549 18.8161L0.037955 18.7061L0.0829549 18.5841L1.51595 15.2801L1.50695 15.2661C0.304708 13.3252 -0.197225 11.0314 0.084564 8.76584C0.366353 6.50025 1.4149 4.39929 3.05596 2.81208L3.27095 2.60908C5.07098 0.968548 7.40782 0.0413002 9.84295 0.00134691C12.2781 -0.0386064 14.6441 0.810481 16.497 2.39108ZM7.49996 5.48208C7.10213 5.48208 6.7206 5.64012 6.43929 5.92142C6.15799 6.20272 5.99996 6.58426 5.99996 6.98208V7.98208C5.99996 9.57338 6.6321 11.0995 7.75731 12.2247C8.88253 13.3499 10.4087 13.9821 12 13.9821H13C13.3978 13.9821 13.7793 13.824 14.0606 13.5427C14.3419 13.2614 14.5 12.8799 14.5 12.4821C14.5 12.0843 14.3419 11.7027 14.0606 11.4214C13.7793 11.1401 13.3978 10.9821 13 10.9821H12L11.856 10.9891C11.6271 11.011 11.4063 11.0853 11.2108 11.2062C11.0152 11.327 10.85 11.4912 10.728 11.6861L10.686 11.7601L10.664 11.7531C10.1027 11.5535 9.59296 11.2315 9.17177 10.8103C8.75057 10.3891 8.4285 9.87933 8.22896 9.31808L8.22095 9.29508L8.29595 9.25408C8.51151 9.11912 8.68921 8.93158 8.81236 8.70907C8.93551 8.48656 9.00006 8.23639 8.99996 7.98208V6.98208C8.99996 6.58426 8.84192 6.20272 8.56062 5.92142C8.27931 5.64012 7.89778 5.48208 7.49996 5.48208Z"
      fill="currentColor" />
  </symbol>
  <symbol id="icon-social-telegram" viewBox="0 0 29 29" fill="none">
    <path
      d="M14.5 0C10.6552 0 6.96453 1.52862 4.24805 4.24691C1.52878 6.9663 0.000778126 10.6543 0 14.5C0 18.3441 1.5293 22.0348 4.24805 24.7531C6.96453 27.4714 10.6552 29 14.5 29C18.3448 29 22.0355 27.4714 24.752 24.7531C27.4707 22.0348 29 18.3441 29 14.5C29 10.6559 27.4707 6.96521 24.752 4.24691C22.0355 1.52862 18.3448 0 14.5 0Z"
      fill="#2AABEE" />
    <path
      d="M6.56279 14.3466C10.7904 12.5051 13.6089 11.291 15.0181 10.7043C19.0464 9.02936 19.8824 8.73846 20.4284 8.7286C20.5485 8.72668 20.8158 8.75636 20.9903 8.89739C21.1353 9.01634 21.1761 9.1772 21.1965 9.29014C21.2146 9.40296 21.2395 9.66011 21.2191 9.86085C21.0016 12.1537 20.0568 17.7176 19.5765 20.2857C19.3749 21.3723 18.9739 21.7366 18.5865 21.7721C17.7436 21.8496 17.1047 21.2157 16.2891 20.6812C15.0136 19.8445 14.2931 19.3239 13.0538 18.5076C11.6219 17.5642 12.5508 17.0456 13.3665 16.1983C13.5794 15.9764 17.2905 12.6018 17.3608 12.2957C17.3698 12.2574 17.3789 12.1147 17.2928 12.0395C17.209 11.964 17.0843 11.9899 16.9937 12.0102C16.8646 12.0392 14.8278 13.3868 10.8765 16.0528C10.2988 16.4502 9.77544 16.6439 9.30419 16.6337C8.78763 16.6226 7.79076 16.341 7.0499 16.1004C6.14365 15.8052 5.42091 15.6491 5.48435 15.1477C5.51607 14.8867 5.8763 14.6196 6.56279 14.3466Z"
      fill="#fff" />
  </symbol>
  <symbol id="icon-social-whatsapp" viewBox="0 0 29 29" fill="none">
    <path
      d="M0.62058 14.326C0.6199 16.7626 1.26149 19.1417 2.48147 21.2387L0.503906 28.4035L7.89308 26.481C9.93684 27.585 12.2267 28.1635 14.5537 28.1636H14.5598C22.2416 28.1636 28.4947 21.9609 28.498 14.3369C28.4994 10.6426 27.0509 7.16865 24.419 4.55505C21.7877 1.94168 18.288 0.501686 14.5592 0.5C6.87655 0.5 0.623865 6.7024 0.620693 14.326"
      fill="#60D669" />
    <path
      d="M10.9505 8.33392C10.6803 7.73784 10.3958 7.72581 10.1388 7.71536C9.92835 7.70637 9.68775 7.70704 9.44738 7.70704C9.20679 7.70704 8.81587 7.79685 8.48545 8.15486C8.15469 8.5132 7.22266 9.37915 7.22266 11.1404C7.22266 12.9016 8.51547 14.6039 8.69569 14.843C8.87614 15.0816 11.1915 18.8116 14.8584 20.2465C17.906 21.439 18.5262 21.2018 19.1876 21.142C19.8491 21.0824 21.3221 20.2763 21.6227 19.4404C21.9234 18.6045 21.9234 17.8881 21.8332 17.7383C21.7431 17.5892 21.5025 17.4996 21.1417 17.3207C20.7809 17.1417 19.0071 16.2755 18.6765 16.156C18.3457 16.0367 18.1052 15.9771 17.8646 16.3356C17.624 16.6934 16.9332 17.4996 16.7226 17.7383C16.5123 17.9777 16.3017 18.0074 15.941 17.8284C15.58 17.6488 14.4181 17.2712 13.0397 16.0517C11.9672 15.1028 11.2431 13.931 11.0327 13.5726C10.8222 13.2147 11.0101 13.0207 11.191 12.8423C11.3531 12.6819 11.5519 12.4243 11.7325 12.2153C11.9124 12.0062 11.9724 11.8571 12.0927 11.6183C12.2131 11.3794 12.1529 11.1703 12.0628 10.9912C11.9724 10.8122 11.2713 9.04172 10.9505 8.33392Z"
      fill="#fff" />
  </symbol>
  <symbol id="icon-vk" viewBox="0 0 29 29" fill="none">
    <rect width="29" height="29" rx="9" fill="#0077FF" />
    <path
      d="M23.4121 20.6879H21.3068C20.5093 20.6879 20.2637 20.0553 18.8292 18.6017C17.5831 17.3937 17.0312 17.2333 16.7239 17.2333C16.2898 17.2333 16.1666 17.3556 16.1666 17.951V19.8532C16.1666 20.3634 16.0062 20.6698 14.6559 20.6698C12.4229 20.6698 9.94519 19.3194 8.20791 16.8037C5.58794 13.1171 4.87109 10.3557 4.87109 9.78478C4.87109 9.47756 4.99344 9.19028 5.58341 9.19028H7.69316C8.22694 9.19028 8.42994 9.43587 8.63747 10.0068C9.68056 13.0183 11.4178 15.6564 12.1347 15.6564C12.3993 15.6564 12.5217 15.534 12.5217 14.8589V11.7486C12.441 10.314 11.6861 10.1908 11.6861 9.68147C11.6861 9.43587 11.8891 9.19028 12.2144 9.19028H15.5322C15.9808 9.19028 16.1458 9.43587 16.1458 9.96422V14.1602C16.1458 14.6133 16.3487 14.7737 16.4711 14.7737C16.7357 14.7737 16.9623 14.6133 17.4526 14.1221C18.9678 12.4229 20.0535 9.80291 20.0535 9.80291C20.1949 9.49569 20.4405 9.20841 20.9742 9.20841H23.084C23.7166 9.20841 23.8579 9.53375 23.7166 9.98688C23.4519 11.2139 20.87 14.858 20.87 14.858C20.648 15.2259 20.5628 15.3863 20.87 15.7968C21.0966 16.1041 21.8334 16.7412 22.3237 17.3121C23.2254 18.3362 23.9187 19.1953 24.1035 19.7898C24.3111 20.3797 24.0047 20.687 23.4093 20.687L23.4121 20.6879Z"
      fill="#fff" />
  </symbol>
  <symbol id="icon-youtube" viewBox="0 0 34 24" fill="none">
    <path
      d="M33.2473 3.72851C33.0523 3.00785 32.6719 2.35084 32.144 1.82292C31.6161 1.295 30.9591 0.914578 30.2385 0.719539C27.6001 0 16.9818 0 16.9818 0C16.9818 0 6.36299 0.02178 3.72468 0.741319C3.00401 0.93637 2.34702 1.31681 1.81912 1.84476C1.29122 2.37271 0.910833 3.02974 0.715846 3.75042C-0.0821809 8.43818 -0.39175 15.5812 0.737759 20.0815C0.932766 20.8021 1.31316 21.4591 1.84106 21.9871C2.36896 22.515 3.02594 22.8954 3.74659 23.0905C6.3849 23.81 17.0035 23.81 17.0035 23.81C17.0035 23.81 27.6219 23.81 30.2601 23.0905C30.9808 22.8954 31.6378 22.515 32.1657 21.9871C32.6936 21.4592 33.074 20.8022 33.2691 20.0815C34.1108 15.3871 34.3702 8.2484 33.2473 3.72851Z"
      fill="#FF0000" />
    <path d="M13.6016 17.007L22.4103 11.9048L13.6016 6.80273V17.007Z" fill="#fff" />
  </symbol>
  <symbol id="icon-faq-plus" viewBox="0 0 18 19" fill="none">
    <path d="M9 0V19M0 9.5H18" stroke="currentColor" stroke-width="2" stroke-linecap="round" />
  </symbol>
  <symbol id="icon-shield" viewBox="0 0 28 35" fill="none">
    <path
      d="M14 35C9.94583 33.9792 6.59867 31.6528 3.9585 28.021C1.31833 24.3892 -0.00116589 20.3572 7.72968e-07 15.925V5.25L14 0L28 5.25V15.925C28 20.3583 26.6805 24.3909 24.0415 28.0227C21.4025 31.6546 18.0553 33.9803 14 35ZM14 31.325C17.0333 30.3625 19.5417 28.4375 21.525 25.55C23.5083 22.6625 24.5 19.4542 24.5 15.925V7.65625L14 3.71875L3.5 7.65625V15.925C3.5 19.4542 4.49167 22.6625 6.475 25.55C8.45833 28.4375 10.9667 30.3625 14 31.325Z"
      fill="currentColor" />
  </symbol>
  <symbol id="icon-location" viewBox="0 0 28 28" fill="none">
    <path
      d="M0.75 5.12861C0.75 3.5961 0.75 2.82984 1.04832 2.2442C1.3107 1.72929 1.72937 1.31066 2.24432 1.04829C2.83 0.75 3.59632 0.75 5.12895 0.75H22.3711C23.9037 0.75 24.67 0.75 25.2557 1.04829C25.7706 1.31066 26.1893 1.72929 26.4517 2.2442C26.75 2.82984 26.75 3.5961 26.75 5.12861V22.3694C26.75 23.9019 26.75 24.6682 26.4517 25.2538C26.1893 25.7687 25.7706 26.1874 25.2557 26.4497C24.67 26.748 23.9037 26.748 22.3711 26.748H5.12895C3.59632 26.748 2.83 26.748 2.24432 26.4497C1.72937 26.1874 1.3107 25.7687 1.04832 25.2538C0.75 24.6682 0.75 23.9019 0.75 22.3694V5.12861Z"
      stroke="currentColor" stroke-width="1.5" stroke-linecap="round" />
    <path
      d="M22.6447 26.7497L14.4342 6.22491M26.75 3.48828L0.75 8.96155M14.4342 17.8967C14.4342 20.8495 11.5058 22.9238 10.2291 23.6887C10.0525 23.7946 9.85057 23.8506 9.64474 23.8506C9.4389 23.8506 9.23693 23.7946 9.06042 23.6887C7.78368 22.9238 4.85526 20.8495 4.85526 17.8953C4.85526 14.9986 7.17611 13.0665 9.64474 13.0665C12.1996 13.0665 14.4342 14.9986 14.4342 17.8967Z"
      stroke="currentColor" stroke-width="1.5" />
    <path
      d="M9.6416 17.2363C9.98315 17.2363 10.2607 17.5131 10.2607 17.8545C10.2607 18.1959 9.9832 18.4727 9.6416 18.4727C9.30012 18.4725 9.02344 18.1958 9.02344 17.8545C9.02352 17.5132 9.30017 17.2365 9.6416 17.2363Z"
      stroke="currentColor" stroke-width="1.5" />
  </symbol>
  <symbol id="icon-clock" viewBox="0 0 28 28" fill="none">
    <path
      d="M0.75 13.75C0.75 7.62221 0.75 4.55695 2.65347 2.65347C4.55695 0.75 7.62084 0.75 13.75 0.75C19.8778 0.75 22.9431 0.75 24.8465 2.65347C26.75 4.55695 26.75 7.62084 26.75 13.75C26.75 19.8778 26.75 22.9431 24.8465 24.8465C22.9431 26.75 19.8792 26.75 13.75 26.75C7.62221 26.75 4.55695 26.75 2.65347 24.8465C0.75 22.9431 0.75 19.8792 0.75 13.75Z"
      stroke="currentColor" stroke-width="1.5" stroke-linejoin="round" />
    <path
      d="M13.7616 11.7076C13.2172 11.7076 12.6951 11.9239 12.3102 12.3088C11.9252 12.6938 11.709 13.2159 11.709 13.7603C11.709 14.3047 11.9252 14.8268 12.3102 15.2117C12.6951 15.5967 13.2172 15.8129 13.7616 15.8129C14.306 15.8129 14.8281 15.5967 15.213 15.2117C15.598 14.8268 15.8142 14.3047 15.8142 13.7603C15.8142 13.2159 15.598 12.6938 15.213 12.3088C14.8281 11.9239 14.306 11.7076 13.7616 11.7076ZM13.7616 11.7076V6.90723M17.8765 17.882L15.2094 15.2163"
      stroke="currentColor" stroke-width="1.5" stroke-linecap="round" stroke-linejoin="round" />
  </symbol>
  <symbol id="icon-envelope" viewBox="0 0 28 28" fill="none">
    <path
      d="M0.75 7.5C0.75 5.29086 2.54086 3.5 4.75 3.5H23.25C25.4591 3.5 27.25 5.29086 27.25 7.5V20.5C27.25 22.7091 25.4591 24.5 23.25 24.5H4.75C2.54086 24.5 0.75 22.7091 0.75 20.5V7.5Z"
      stroke="currentColor" stroke-width="1.5" />
    <path d="M1.5 8L12.382 15.386C13.352 16.043 14.648 16.043 15.618 15.386L26.5 8"
      stroke="currentColor" stroke-width="1.5" stroke-linecap="round" stroke-linejoin="round" />
  </symbol>
  <symbol id="icon-phone-outline" viewBox="0 0 26 26" fill="none">
    <path
      d="M24.8852 17.815L18.6185 15.0066C18.3346 14.885 18.0248 14.836 17.7171 14.8643C17.4095 14.8926 17.1138 14.9971 16.8568 15.1685C16.8308 15.1853 16.8059 15.2039 16.7825 15.2242L13.5072 18.01C13.4732 18.0285 13.4354 18.0389 13.3967 18.0403C13.358 18.0417 13.3196 18.034 13.2843 18.018C11.1791 17.0018 8.99818 14.8342 7.97804 12.7581C7.96105 12.7234 7.95222 12.6853 7.95222 12.6466C7.95222 12.608 7.96105 12.5699 7.97804 12.5352L10.7731 9.21876C10.7932 9.19425 10.8118 9.16856 10.8288 9.14182C10.9978 8.88381 11.0999 8.58777 11.1259 8.28043C11.1518 7.9731 11.1008 7.66414 10.9774 7.38145L8.18897 1.12531C8.03061 0.755998 7.75675 0.44801 7.40849 0.247568C7.06023 0.0471249 6.65635 -0.0349602 6.25747 0.0136319C4.52394 0.241534 2.93269 1.09285 1.78111 2.40851C0.629517 3.72416 -0.00361847 5.41411 1.55572e-05 7.16257C1.55572e-05 17.5497 8.4503 26 18.8374 26C20.5858 26.0033 22.2756 25.3701 23.5911 24.2186C24.9067 23.067 25.7581 21.4759 25.9863 19.7425C26.0348 19.3455 25.9538 18.9434 25.7554 18.5961C25.5571 18.2489 25.2519 17.9749 24.8852 17.815ZM18.8374 24.4081C9.32849 24.4081 1.59191 16.6715 1.59191 7.16257C1.58747 5.8014 2.07876 4.48519 2.97399 3.45983C3.86922 2.43448 5.10714 1.77014 6.45646 1.59093H6.48697C6.54043 1.59193 6.59234 1.60906 6.63589 1.64007C6.67945 1.67108 6.71262 1.71453 6.73106 1.76472L9.53013 8.01423C9.5461 8.04897 9.55436 8.08676 9.55436 8.125C9.55436 8.16324 9.5461 8.20102 9.53013 8.23577L6.72973 11.5602C6.70894 11.584 6.68988 11.6093 6.67269 11.6358C6.49746 11.9033 6.39427 12.2115 6.37312 12.5306C6.35197 12.8497 6.41358 13.1689 6.55197 13.4572C7.72864 15.8663 10.1563 18.2753 12.5919 19.452C12.8819 19.5896 13.2026 19.6497 13.5227 19.6265C13.8429 19.6032 14.1515 19.4974 14.4186 19.3193C14.4438 19.3021 14.469 19.2835 14.4929 19.2636L17.7668 16.4778C17.7992 16.4604 17.8349 16.4502 17.8715 16.448C17.9081 16.4457 17.9448 16.4513 17.9791 16.4645L24.2472 19.2729C24.2984 19.2947 24.3414 19.3321 24.3702 19.3797C24.399 19.4273 24.4121 19.4827 24.4077 19.5382C24.2294 20.8882 23.5657 22.127 22.5406 23.0232C21.5154 23.9195 20.199 24.4118 18.8374 24.4081Z"
      fill="currentColor" />
  </symbol>
  <symbol id="icon-attach-plus" viewBox="0 0 55 55" fill="none">
    <circle cx="27.5" cy="27.5" r="27.5" fill="#fff" />
    <path d="M27.5 18v19M18 27.5h19" stroke="#FD8011" stroke-width="2" stroke-linecap="round" />
  </symbol>
  <symbol id="icon-play" viewBox="0 0 91 91" fill="none">
    <circle cx="45.5" cy="45.5" r="45.5" fill="#FD8011" />
    <path d="M61 45.5L35 60.5V30.5L61 45.5Z" fill="#fff" />
  </symbol>
  <symbol id="icon-max" viewBox="0 0 29 29" fill="none">
    <circle cx="14.5" cy="14.5" r="14.5" fill="#7B5CF6" />
    <path d="M9 19V10h2.4l2.6 4.5L16.6 10H19v9h-2.1v-5.2L14.2 19h-1.4l-2.7-5.2V19H9Z" fill="#fff" />
  </symbol>
  <symbol id="icon-review-thumbs" viewBox="0 0 9 9" fill="none">
    <path
      d="M0.25 3.60438H0.748027C1.49973 3.60438 2.22133 3.57684 2.75734 3.02973C3.2934 2.48262 3.60117 1.7387 3.61437 0.958176C3.61437 -0.301654 5.14715 0.288251 5.14715 1.41224V2.86002C5.14715 3.05743 5.22265 3.24676 5.35703 3.38636C5.49142 3.52595 5.67369 3.60438 5.86374 3.60438H7.55094C7.92571 3.60438 8.24065 3.90435 8.24818 4.29365C8.27147 5.53525 8.07261 6.43853 7.58892 7.39987C7.31017 7.95442 6.73152 8.26333 6.12959 8.24956C1.94652 8.15242 2.48754 7.41922 0.25 7.41922"
      stroke="currentColor" stroke-width="0.5" stroke-linecap="round" stroke-linejoin="round" />
  </symbol>
  <symbol id="icon-review-verified" viewBox="0 0 20 20" fill="none">
    <path
      d="M16.5124 6.59244V3.50244C16.5124 2.95244 16.0624 2.50244 15.5124 2.50244H12.4224L10.2124 0.292444C10.1199 0.19974 10.01 0.126193 9.88907 0.0760114C9.7681 0.02583 9.63841 0 9.50744 0C9.37648 0 9.24679 0.02583 9.12582 0.0760114C9.00485 0.126193 8.89496 0.19974 8.80244 0.292444L6.59244 2.50244H3.50244C2.95244 2.50244 2.50244 2.95244 2.50244 3.50244V6.59244L0.292444 8.80244C0.19974 8.89496 0.126193 9.00485 0.0760114 9.12582C0.02583 9.24679 0 9.37648 0 9.50744C0 9.63841 0.02583 9.7681 0.0760114 9.88907C0.126193 10.01 0.19974 10.1199 0.292444 10.2124L2.50244 12.4224V15.5124C2.50244 16.0624 2.95244 16.5124 3.50244 16.5124H6.59244L8.80244 18.7224C9.00244 18.9224 9.25244 19.0124 9.51244 19.0124C9.77244 19.0124 10.0224 18.9124 10.2224 18.7224L12.4324 16.5124H15.5224C16.0724 16.5124 16.5224 16.0624 16.5224 15.5124V12.4224L18.7324 10.2124C18.8251 10.1199 18.8987 10.01 18.9489 9.88907C18.9991 9.7681 19.0249 9.63841 19.0249 9.50744C19.0249 9.37648 18.9991 9.24679 18.9489 9.12582C18.8987 9.00485 18.8251 8.89496 18.7324 8.80244L16.5224 6.59244H16.5124ZM8.51244 12.9224L5.80244 10.2124L7.21244 8.80244L8.50244 10.0924L11.7924 6.80244L13.2024 8.21244L8.49244 12.9224H8.51244Z"
      fill="currentColor" />
  </symbol>
</svg>