<svg xmlns="http://www.w3.org/2000/svg" style="display:none">
  <symbol id="icon-btn-arrow" viewBox="0 0 40 40" fill="none">
    <circle cx="20" cy="20" r="20" fill="#FD8011" />
    <path d="M16 15L24 20L16 25" stroke="#fff" stroke-width="1.5" stroke-linecap="round"
      stroke-linejoin="round" />
  </symbol>
  <symbol id="icon-btn-arrow-light" viewBox="0 0 34 35" fill="none">
    <circle cx="17" cy="17.5" r="17" fill="#fff" />
    <path d="M13.5 12.5L20.5 17.5L13.5 22.5" stroke="#FD8011" stroke-width="1.5"
      stroke-linecap="round" stroke-linejoin="round" />
  </symbol>
  <symbol id="icon-arrow-right" viewBox="0 0 15 10" fill="none">
    <path
      d="M14.4394 5.01611C14.6821 4.77341 14.6821 4.37991 14.4394 4.13721L10.4844 0.182203C10.2417 -0.0604959 9.84824 -0.0604959 9.60554 0.182203C9.36284 0.424902 9.36284 0.818396 9.60554 1.06109L13.1211 4.57666L9.60554 8.09223C9.36284 8.33492 9.36284 8.72842 9.60554 8.97112C9.84824 9.21382 10.2417 9.21382 10.4844 8.97112L14.4394 5.01611ZM0 4.57666L0 5.19813L14 5.19813V4.57666V3.95519L0 3.95519L0 4.57666Z"
      fill="currentColor" />
  </symbol>
  <symbol id="icon-chevron-left" viewBox="0 0 7 11" fill="none">
    <path
      d="M5.59961 0.109429C5.76294 -0.0364762 6.02808 -0.0364762 6.19141 0.109429C6.35468 0.255325 6.35468 0.491854 6.19141 0.637749L1.01465 5.26079L6.19141 9.88482C6.35436 10.0307 6.35436 10.2664 6.19141 10.4122C6.02808 10.5581 5.76294 10.5581 5.59961 10.4122L0.188477 5.57915C0.165101 5.56541 0.142635 5.54869 0.12207 5.53032C0.0407101 5.45742 -6.20337e-06 5.36207 7.08894e-10 5.26665V5.25493C0.000132491 5.15958 0.0406873 5.06407 0.12207 4.99126C0.142698 4.97283 0.165023 4.9562 0.188477 4.94243L5.59961 0.109429Z"
      fill="currentColor" />
  </symbol>
  <symbol id="icon-chevron-right" viewBox="0 0 7 11" fill="none">
    <path
      d="M0.714233 10.4121C0.550903 10.558 0.285763 10.558 0.122433 10.4121C-0.0408373 10.2662 -0.0408373 10.0296 0.122433 9.88374L5.29919 5.26069L0.122433 0.636661C-0.0405173 0.490831 -0.0405173 0.255131 0.122433 0.109331C0.285763 -0.0365689 0.550903 -0.0365689 0.714233 0.109331L6.12537 4.94233C6.14874 4.95607 6.17121 4.97279 6.19177 4.99116C6.27313 5.06406 6.31385 5.15941 6.31384 5.25483V5.26655C6.31371 5.3619 6.27316 5.45741 6.19177 5.53022C6.17114 5.54865 6.14882 5.56528 6.12537 5.57905L0.714233 10.4121Z"
      fill="currentColor" />
  </symbol>
  <symbol id="icon-arrow-up-right" viewBox="0 0 24 24" fill="none">
    <path d="M7 17L17 7M17 7H9M17 7V15" stroke="currentColor" stroke-width="2"
      stroke-linecap="round" stroke-linejoin="round" />
  </symbol>
  <symbol id="icon-panels-chevron" viewBox="0 0 32 32" fill="none">
    <path d="M8 12L16 20L24 12" stroke="currentColor" stroke-width="2" stroke-linecap="round"
      stroke-linejoin="round" />
  </symbol>
  <symbol id="icon-check-circle" viewBox="0 0 28 28" fill="none">
    <circle cx="14" cy="14" r="13" stroke="currentColor" stroke-width="2" />
    <path d="M8.5 14.2L12.3 18L19.5 10.8" stroke="currentColor" stroke-width="2"
      stroke-linecap="round" stroke-linejoin="round" />
  </symbol>
  <symbol id="icon-close-circle" viewBox="0 0 28 28" fill="none">
    <circle cx="14" cy="14" r="13" stroke="currentColor" stroke-width="2" />
    <path d="M10 10L18 18M18 10L10 18" stroke="currentColor" stroke-width="2" stroke-linecap="round" />
  </symbol>
  <symbol id="icon-telegram" viewBox="0 0 16 14" fill="none">
    <path
      d="M14.95 1.37 13.14 12.47c-.14.63-.51.78-1.03.48l-2.86-2.1-1.38 1.33c-.15.15-.27.27-.57.27l.21-2.92 4.73-4.27c.23-.2-.04-.31-.32-.14L4.81 9.4 2.81 8.6c-.61-.19-.62-.61.11-.89l10.9-4.2c.45-.17.85.11.23.86Z"
      fill="currentColor" />
  </symbol>
  <symbol id="icon-whatsapp" viewBox="0 0 20 20" fill="none">
    <path
      d="M10 0C4.48 0 0 4.48 0 10c0 1.76.46 3.42 1.26 4.86L0 20l5.28-1.24A9.95 9.95 0 0 0 10 20c5.52 0 10-4.48 10-10S15.52 0 10 0Zm5.43 13.9c-.34.96-1.97 1.83-2.72 1.95-.35.05-.8.07-1.28-.06-.38-.12-.87-.28-1.49-.55-3.01-1.3-4.98-4.37-5.13-4.58-.15-.2-1.23-1.63-1.23-3.11 0-1.48.78-2.21 1.05-2.51.28-.3.6-.38.8-.38.2 0 .4.002.57.006.18.009.43-.07.68.52.25.6.84 2.06.92 2.21.07.15.12.32.02.52-.1.2-.15.32-.29.5-.15.17-.31.39-.44.52-.15.15-.3.31-.13.6.17.29.76 1.26 1.64 2.04 1.13 1 2.08 1.32 2.38 1.46.3.15.47.12.64-.07.17-.2.74-.86.93-1.15.2-.29.39-.25.66-.15.27.1 1.7.8 1.99.95.29.15.48.22.55.34.07.12.07.69-.18 1.39Z"
      fill="currentColor" />
  </symbol>
  <symbol id="icon-social-telegram" viewBox="0 0 29 29" fill="none">
    <path
      d="M14.5 0C10.6552 0 6.96453 1.52862 4.24805 4.24691C1.52878 6.9663 0.000778126 10.6543 0 14.5C0 18.3441 1.5293 22.0348 4.24805 24.7531C6.96453 27.4714 10.6552 29 14.5 29C18.3448 29 22.0355 27.4714 24.752 24.7531C27.4707 22.0348 29 18.3441 29 14.5C29 10.6559 27.4707 6.96521 24.752 4.24691C22.0355 1.52862 18.3448 0 14.5 0Z"
      fill="#2AABEE" />
    <path
      d="M6.56279 14.3466C10.7904 12.5051 13.6089 11.291 15.0181 10.7043C19.0464 9.02936 19.8824 8.73846 20.4284 8.7286C20.5485 8.72668 20.8158 8.75636 20.9903 8.89739C21.1353 9.01634 21.1761 9.1772 21.1965 9.29014C21.2146 9.40296 21.2395 9.66011 21.2191 9.86085C21.0016 12.1537 20.0568 17.7176 19.5765 20.2857C19.3749 21.3723 18.9739 21.7366 18.5865 21.7721C17.7436 21.8496 17.1047 21.2157 16.2891 20.6812C15.0136 19.8445 14.2931 19.3239 13.0538 18.5076C11.6219 17.5642 12.5508 17.0456 13.3665 16.1983C13.5794 15.9764 17.2905 12.6018 17.3608 12.2957C17.3698 12.2574 17.3789 12.1147 17.2928 12.0395C17.209 11.964 17.0843 11.9899 16.9937 12.0102C16.8646 12.0392 14.8278 13.3868 10.8765 16.0528C10.2988 16.4502 9.77544 16.6439 9.30419 16.6337C8.78763 16.6226 7.79076 16.341 7.0499 16.1004C6.14365 15.8052 5.42091 15.6491 5.48435 15.1477C5.51607 14.8867 5.8763 14.6196 6.56279 14.3466Z"
      fill="#fff" />
  </symbol>
  <symbol id="icon-social-whatsapp" viewBox="0 0 29 29" fill="none">
    <path
      d="M0.62058 14.326C0.6199 16.7626 1.26149 19.1417 2.48147 21.2387L0.503906 28.4035L7.89308 26.481C9.93684 27.585 12.2267 28.1635 14.5537 28.1636H14.5598C22.2416 28.1636 28.4947 21.9609 28.498 14.3369C28.4994 10.6426 27.0509 7.16865 24.419 4.55505C21.7877 1.94168 18.288 0.501686 14.5592 0.5C6.87655 0.5 0.623865 6.7024 0.620693 14.326"
      fill="#60D669" />
    <path
      d="M10.9505 8.33392C10.6803 7.73784 10.3958 7.72581 10.1388 7.71536C9.92835 7.70637 9.68775 7.70704 9.44738 7.70704C9.20679 7.70704 8.81587 7.79685 8.48545 8.15486C8.15469 8.5132 7.22266 9.37915 7.22266 11.1404C7.22266 12.9016 8.51547 14.6039 8.69569 14.843C8.87614 15.0816 11.1915 18.8116 14.8584 20.2465C17.906 21.439 18.5262 21.2018 19.1876 21.142C19.8491 21.0824 21.3221 20.2763 21.6227 19.4404C21.9234 18.6045 21.9234 17.8881 21.8332 17.7383C21.7431 17.5892 21.5025 17.4996 21.1417 17.3207C20.7809 17.1417 19.0071 16.2755 18.6765 16.156C18.3457 16.0367 18.1052 15.9771 17.8646 16.3356C17.624 16.6934 16.9332 17.4996 16.7226 17.7383C16.5123 17.9777 16.3017 18.0074 15.941 17.8284C15.58 17.6488 14.4181 17.2712 13.0397 16.0517C11.9672 15.1028 11.2431 13.931 11.0327 13.5726C10.8222 13.2147 11.0101 13.0207 11.191 12.8423C11.3531 12.6819 11.5519 12.4243 11.7325 12.2153C11.9124 12.0062 11.9724 11.8571 12.0927 11.6183C12.2131 11.3794 12.1529 11.1703 12.0628 10.9912C11.9724 10.8122 11.2713 9.04172 10.9505 8.33392Z"
      fill="#fff" />
  </symbol>
  <symbol id="icon-vk" viewBox="0 0 29 29" fill="none">
    <rect width="29" height="29" rx="9" fill="#fff" />
    <path
      d="M18.9515 0H10.0494C1.92578 0 0 1.92578 0 10.0494V18.9515C0 27.0751 1.92578 29.0009 10.0494 29.0009H18.9515C27.0751 29.0009 29.0009 27.0751 29.0009 18.9515V10.0494C29.0009 1.92578 27.0561 0 18.9515 0ZM23.4121 20.6879H21.3068C20.5093 20.6879 20.2637 20.0553 18.8292 18.6017C17.5831 17.3937 17.0312 17.2333 16.7239 17.2333C16.2898 17.2333 16.1666 17.3556 16.1666 17.951V19.8532C16.1666 20.3634 16.0062 20.6698 14.6559 20.6698C12.4229 20.6698 9.94519 19.3194 8.20791 16.8037C5.58794 13.1171 4.87109 10.3557 4.87109 9.78478C4.87109 9.47756 4.99344 9.19028 5.58341 9.19028H7.69316C8.22694 9.19028 8.42994 9.43587 8.63747 10.0068C9.68056 13.0183 11.4178 15.6564 12.1347 15.6564C12.3993 15.6564 12.5217 15.534 12.5217 14.8589V11.7486C12.441 10.314 11.6861 10.1908 11.6861 9.68147C11.6861 9.43587 11.8891 9.19028 12.2144 9.19028H15.5322C15.9808 9.19028 16.1458 9.43587 16.1458 9.96422V14.1602C16.1458 14.6133 16.3487 14.7737 16.4711 14.7737C16.7357 14.7737 16.9623 14.6133 17.4526 14.1221C18.9678 12.4229 20.0535 9.80291 20.0535 9.80291C20.1949 9.49569 20.4405 9.20841 20.9742 9.20841H23.084C23.7166 9.20841 23.8579 9.53375 23.7166 9.98688C23.4519 11.2139 20.87 14.858 20.87 14.858C20.648 15.2259 20.5628 15.3863 20.87 15.7968C21.0966 16.1041 21.8334 16.7412 22.3237 17.3121C23.2254 18.3362 23.9187 19.1953 24.1035 19.7898C24.3111 20.3797 24.0047 20.687 23.4093 20.687L23.4121 20.6879Z"
      fill="#0077FF" />
  </symbol>
  <symbol id="icon-youtube" viewBox="0 0 34 24" fill="none">
    <path
      d="M33.2473 3.72851C33.0523 3.00785 32.6719 2.35084 32.144 1.82292C31.6161 1.295 30.9591 0.914578 30.2385 0.719539C27.6001 0 16.9818 0 16.9818 0C16.9818 0 6.36299 0.02178 3.72468 0.741319C3.00401 0.93637 2.34702 1.31681 1.81912 1.84476C1.29122 2.37271 0.910833 3.02974 0.715846 3.75042C-0.0821809 8.43818 -0.39175 15.5812 0.737759 20.0815C0.932766 20.8021 1.31316 21.4591 1.84106 21.9871C2.36896 22.515 3.02594 22.8954 3.74659 23.0905C6.3849 23.81 17.0035 23.81 17.0035 23.81C17.0035 23.81 27.6219 23.81 30.2601 23.0905C30.9808 22.8954 31.6378 22.515 32.1657 21.9871C32.6936 21.4592 33.074 20.8022 33.2691 20.0815C34.1108 15.3871 34.3702 8.2484 33.2473 3.72851Z"
      fill="#FF0000" />
    <path d="M13.6016 17.007L22.4103 11.9048L13.6016 6.80273V17.007Z" fill="#fff" />
  </symbol>
  <symbol id="icon-faq-plus" viewBox="0 0 18 19" fill="none">
    <path d="M9 0V19M0 9.5H18" stroke="currentColor" stroke-width="2" stroke-linecap="round" />
  </symbol>
  <symbol id="icon-location" viewBox="0 0 26 26" fill="none">
    <path d="M13 1.5C8.86 1.5 5.5 4.86 5.5 9c0 5.25 7.5 15.5 7.5 15.5S20.5 14.25 20.5 9c0-4.14-3.36-7.5-7.5-7.5Z" stroke="currentColor" stroke-width="1.5" stroke-linejoin="round" />
    <circle cx="13" cy="9" r="2.5" stroke="currentColor" stroke-width="1.5" />
  </symbol>
  <symbol id="icon-clock" viewBox="0 0 26 26" fill="none">
    <circle cx="13" cy="13" r="11.5" stroke="currentColor" stroke-width="1.5" />
    <path d="M13 7v6l4 2" stroke="currentColor" stroke-width="1.5" stroke-linecap="round" stroke-linejoin="round" />
  </symbol>
  <symbol id="icon-phone-outline" viewBox="0 0 26 26" fill="none">
    <path d="M8.5 4.5h9c1.38 0 2.5 1.12 2.5 2.5v12c0 1.38-1.12 2.5-2.5 2.5h-9c-1.38 0-2.5-1.12-2.5-2.5V7c0-1.38 1.12-2.5 2.5-2.5Z" stroke="currentColor" stroke-width="1.5" stroke-linejoin="round" />
    <path d="M11 19.5h4" stroke="currentColor" stroke-width="1.5" stroke-linecap="round" />
  </symbol>
  <symbol id="icon-attach-plus" viewBox="0 0 55 55" fill="none">
    <circle cx="27.5" cy="27.5" r="27.5" fill="#fff" />
    <path d="M27.5 18v19M18 27.5h19" stroke="#FD8011" stroke-width="2" stroke-linecap="round" />
  </symbol>
  <symbol id="icon-max" viewBox="0 0 29 29" fill="none">
    <circle cx="14.5" cy="14.5" r="14.5" fill="#7B5CF6" />
    <path d="M9 19V10h2.4l2.6 4.5L16.6 10H19v9h-2.1v-5.2L14.2 19h-1.4l-2.7-5.2V19H9Z" fill="#fff" />
  </symbol>
</svg>