<svg xmlns="http://www.w3.org/2000/svg" style="display:none">
  <symbol id="icon-btn-arrow" viewBox="0 0 40 40" fill="none">
    <circle cx="20" cy="20" r="20" fill="#FD8011" />
    <path d="M16 15L24 20L16 25" stroke="#fff" stroke-width="1.5" stroke-linecap="round"
      stroke-linejoin="round" />
  </symbol>
  <symbol id="icon-btn-arrow-light" viewBox="0 0 34 35" fill="none">
    <circle cx="17" cy="17.5" r="17" fill="#fff" />
    <path d="M13.5 12.5L20.5 17.5L13.5 22.5" stroke="#FD8011" stroke-width="1.5"
      stroke-linecap="round" stroke-linejoin="round" />
  </symbol>
  <symbol id="icon-arrow-right" viewBox="0 0 15 10" fill="none">
    <path
      d="M14.4394 5.01611C14.6821 4.77341 14.6821 4.37991 14.4394 4.13721L10.4844 0.182203C10.2417 -0.0604959 9.84824 -0.0604959 9.60554 0.182203C9.36284 0.424902 9.36284 0.818396 9.60554 1.06109L13.1211 4.57666L9.60554 8.09223C9.36284 8.33492 9.36284 8.72842 9.60554 8.97112C9.84824 9.21382 10.2417 9.21382 10.4844 8.97112L14.4394 5.01611ZM0 4.57666L0 5.19813L14 5.19813V4.57666V3.95519L0 3.95519L0 4.57666Z"
      fill="currentColor" />
  </symbol>
  <symbol id="icon-chevron-left" viewBox="0 0 7 11" fill="none">
    <path
      d="M5.59961 0.109429C5.76294 -0.0364762 6.02808 -0.0364762 6.19141 0.109429C6.35468 0.255325 6.35468 0.491854 6.19141 0.637749L1.01465 5.26079L6.19141 9.88482C6.35436 10.0307 6.35436 10.2664 6.19141 10.4122C6.02808 10.5581 5.76294 10.5581 5.59961 10.4122L0.188477 5.57915C0.165101 5.56541 0.142635 5.54869 0.12207 5.53032C0.0407101 5.45742 -6.20337e-06 5.36207 7.08894e-10 5.26665V5.25493C0.000132491 5.15958 0.0406873 5.06407 0.12207 4.99126C0.142698 4.97283 0.165023 4.9562 0.188477 4.94243L5.59961 0.109429Z"
      fill="currentColor" />
  </symbol>
  <symbol id="icon-chevron-right" viewBox="0 0 7 11" fill="none">
    <path
      d="M0.714233 10.4121C0.550903 10.558 0.285763 10.558 0.122433 10.4121C-0.0408373 10.2662 -0.0408373 10.0296 0.122433 9.88374L5.29919 5.26069L0.122433 0.636661C-0.0405173 0.490831 -0.0405173 0.255131 0.122433 0.109331C0.285763 -0.0365689 0.550903 -0.0365689 0.714233 0.109331L6.12537 4.94233C6.14874 4.95607 6.17121 4.97279 6.19177 4.99116C6.27313 5.06406 6.31385 5.15941 6.31384 5.25483V5.26655C6.31371 5.3619 6.27316 5.45741 6.19177 5.53022C6.17114 5.54865 6.14882 5.56528 6.12537 5.57905L0.714233 10.4121Z"
      fill="currentColor" />
  </symbol>
  <symbol id="icon-arrow-up-right" viewBox="0 0 24 24" fill="none">
    <path d="M7 17L17 7M17 7H9M17 7V15" stroke="currentColor" stroke-width="2"
      stroke-linecap="round" stroke-linejoin="round" />
  </symbol>
  <symbol id="icon-panels-chevron" viewBox="0 0 32 32" fill="none">
    <path d="M8 12L16 20L24 12" stroke="currentColor" stroke-width="2" stroke-linecap="round"
      stroke-linejoin="round" />
  </symbol>
  <symbol id="icon-check-circle" viewBox="0 0 28 28" fill="none">
    <circle cx="14" cy="14" r="13" stroke="currentColor" stroke-width="2" />
    <path d="M8.5 14.2L12.3 18L19.5 10.8" stroke="currentColor" stroke-width="2"
      stroke-linecap="round" stroke-linejoin="round" />
  </symbol>
  <symbol id="icon-close-circle" viewBox="0 0 28 28" fill="none">
    <circle cx="14" cy="14" r="13" stroke="currentColor" stroke-width="2" />
    <path d="M10 10L18 18M18 10L10 18" stroke="currentColor" stroke-width="2" stroke-linecap="round" />
  </symbol>
  <symbol id="icon-telegram" viewBox="0 0 16 14" fill="none">
    <path
      d="M14.95 1.37 13.14 12.47c-.14.63-.51.78-1.03.48l-2.86-2.1-1.38 1.33c-.15.15-.27.27-.57.27l.21-2.92 4.73-4.27c.23-.2-.04-.31-.32-.14L4.81 9.4 2.81 8.6c-.61-.19-.62-.61.11-.89l10.9-4.2c.45-.17.85.11.23.86Z"
      fill="currentColor" />
  </symbol>
  <symbol id="icon-whatsapp" viewBox="0 0 20 20" fill="none">
    <path
      d="M10 0C4.48 0 0 4.48 0 10c0 1.76.46 3.42 1.26 4.86L0 20l5.28-1.24A9.95 9.95 0 0 0 10 20c5.52 0 10-4.48 10-10S15.52 0 10 0Zm5.43 13.9c-.34.96-1.97 1.83-2.72 1.95-.35.05-.8.07-1.28-.06-.38-.12-.87-.28-1.49-.55-3.01-1.3-4.98-4.37-5.13-4.58-.15-.2-1.23-1.63-1.23-3.11 0-1.48.78-2.21 1.05-2.51.28-.3.6-.38.8-.38.2 0 .4.002.57.006.18.009.43-.07.68.52.25.6.84 2.06.92 2.21.07.15.12.32.02.52-.1.2-.15.32-.29.5-.15.17-.31.39-.44.52-.15.15-.3.31-.13.6.17.29.76 1.26 1.64 2.04 1.13 1 2.08 1.32 2.38 1.46.3.15.47.12.64-.07.17-.2.74-.86.93-1.15.2-.29.39-.25.66-.15.27.1 1.7.8 1.99.95.29.15.48.22.55.34.07.12.07.69-.18 1.39Z"
      fill="currentColor" />
  </symbol>
  <symbol id="icon-faq-plus" viewBox="0 0 18 19" fill="none">
    <path d="M9 0V19M0 9.5H18" stroke="currentColor" stroke-width="2" stroke-linecap="round" />
  </symbol>
</svg>