<svg xmlns="http://www.w3.org/2000/svg" width="104" height="116" viewBox="0 0 104 116" fill="none">
  <g clip-path="url(#clip0_2239_92)">
    <path
      d="M51.8947 0C65.6581 0 78.8577 5.46888 88.5899 15.2036C98.322 24.9382 103.789 38.1413 103.789 51.9082C103.789 69.6815 94.1025 84.1328 84.0695 94.4037C80.082 98.446 75.7961 102.182 71.248 105.581C67.1379 108.668 57.7415 114.454 57.7415 114.454C55.9594 115.467 53.9446 116 51.8947 116C49.8448 116 47.8301 115.467 46.0479 114.454C41.3819 111.754 36.8725 108.792 32.5415 105.581C27.9934 102.182 23.7074 98.446 19.72 94.4037C9.68702 84.1328 0 69.6815 0 51.9082C0 38.1413 5.46747 24.9382 15.1996 15.2036C24.9318 5.46888 38.1314 0 51.8947 0Z"
      fill="#FD8011" />
    <path
      d="M52 70C61.9411 70 70 61.9411 70 52C70 42.0589 61.9411 34 52 34C42.0589 34 34 42.0589 34 52C34 61.9411 42.0589 70 52 70Z"
      fill="white" />
  </g>
  <defs>
    <clipPath id="clip0_2239_92">
      <rect width="104" height="116" fill="white" />
    </clipPath>
  </defs>
</svg>